<svg xmlns="http://www.w3.org/2000/svg" viewBox="0 0 100 100" width="100" height="100">
  <!-- Background circle -->
  <circle cx="50" cy="50" r="45" fill="#2a7d4f" />
  
  <!-- Outer ring -->
  <circle cx="50" cy="50" r="45" fill="none" stroke="#f5a623" stroke-width="5" />
  
  <!-- Animal silhouettes -->
  <!-- Owl -->
  <path d="M40 30 C35 25, 30 35, 35 40 C30 45, 35 55, 40 50 C45 55, 50 45, 45 40 C50 35, 45 25, 40 30 Z" fill="#8ed1fc" />
  
  <!-- Eyes -->
  <circle cx="37" cy="40" r="3" fill="#ffffff" />
  <circle cx="43" cy="40" r="3" fill="#ffffff" />
  <circle cx="37" cy="40" r="1.5" fill="#000000" />
  <circle cx="43" cy="40" r="1.5" fill="#000000" />
  
  <!-- Tiger -->
  <path d="M65 60 C70 55, 75 65, 70 70 C65 75, 60 65, 65 60 Z" fill="#f5a623" />
  <path d="M65 60 L67 55 M65 60 L63 55 M65 65 L67 70 M65 65 L63 70" stroke="#000000" stroke-width="1" />
  
  <!-- Leaf decoration -->
  <path d="M20 20 C15 25, 25 35, 20 30 Z" fill="#3ca66e" />
  <path d="M80 20 C85 25, 75 35, 80 30 Z" fill="#3ca66e" />
  <path d="M20 80 C15 75, 25 65, 20 70 Z" fill="#3ca66e" />
  <path d="M80 80 C85 75, 75 65, 80 70 Z" fill="#3ca66e" />
  
  <!-- Text "WW" for World Wonders -->
  <text x="50" y="85" font-family="Arial" font-size="14" font-weight="bold" text-anchor="middle" fill="#ffffff">WW</text>
</svg> 